<?xml version="1.0" standalone="no"?>
<!DOCTYPE svg PUBLIC "-//W3C//DTD SVG 20010904//EN"
 "http://www.w3.org/TR/2001/REC-SVG-20010904/DTD/svg10.dtd">
<svg version="1.0" xmlns="http://www.w3.org/2000/svg"
 width="626.000000pt" height="626.000000pt" viewBox="0 0 626.000000 626.000000"
 preserveAspectRatio="xMidYMid meet">
<metadata>
Created by potrace 1.11, written by Peter Selinger 2001-2013
</metadata>
<g transform="translate(0.000000,626.000000) scale(0.100000,-0.100000)"
fill="#000000" stroke="none">
<path d="M3074 6221 c-28 -20 -83 -58 -123 -85 l-71 -49 0 -408 c0 -224 -4
-410 -9 -413 -4 -3 -28 7 -52 23 -24 15 -122 74 -216 130 l-173 102 -72 -46
c-40 -26 -88 -57 -105 -68 l-33 -22 0 -151 0 -151 103 -56 c56 -32 145 -82
197 -113 52 -31 115 -67 140 -81 25 -14 84 -48 133 -76 l87 -51 0 -268 c0
-179 -3 -268 -10 -268 -11 0 -107 50 -353 183 -81 44 -150 77 -153 74 -3 -2
-5 -127 -4 -276 0 -229 -2 -271 -14 -271 -8 0 -54 23 -103 51 -207 121 -281
164 -326 188 l-48 26 3 404 3 405 -122 74 -123 74 -30 -24 c-17 -12 -60 -47
-95 -76 l-65 -53 0 -256 c0 -243 -1 -255 -18 -251 -10 3 -175 91 -366 197
-192 105 -352 191 -356 191 -4 0 -75 -31 -156 -68 l-149 -69 0 -164 0 -164
225 -123 c124 -68 268 -146 320 -174 52 -28 112 -60 133 -72 20 -11 37 -22 37
-25 0 -7 -123 -79 -317 -187 l-143 -79 0 -148 0 -147 126 -60 c69 -33 132 -60
140 -60 13 0 103 51 344 195 152 91 321 185 331 185 6 0 86 -42 178 -94 242
-136 281 -159 281 -167 0 -4 -101 -69 -225 -145 -123 -77 -224 -142 -225 -146
0 -4 44 -32 98 -63 274 -157 366 -212 368 -221 2 -5 -38 -33 -89 -63 -51 -30
-153 -90 -227 -133 l-134 -80 -31 18 c-64 37 -474 280 -558 331 -49 29 -93 53
-97 53 -5 0 -69 -33 -142 -74 l-133 -73 0 -154 0 -154 41 -20 c22 -11 126 -60
232 -110 105 -49 192 -93 192 -97 0 -7 -16 -17 -182 -111 -57 -32 -203 -116
-326 -185 l-222 -127 2 -164 3 -164 159 -63 159 -64 56 31 c254 144 537 303
581 326 25 14 49 29 54 34 6 5 16 9 23 9 10 0 13 -53 13 -258 l0 -258 86 -68
c65 -51 91 -66 103 -59 9 4 58 37 109 73 l92 65 0 395 0 395 243 124 c133 68
247 128 254 133 30 24 33 -5 33 -274 -1 -149 1 -272 3 -274 4 -4 118 64 379
224 64 40 121 72 127 72 8 0 11 -85 11 -268 l0 -268 -87 -51 c-49 -28 -110
-63 -138 -79 -27 -15 -113 -64 -190 -109 -77 -45 -164 -95 -192 -111 l-53 -29
0 -150 0 -150 33 -22 c17 -11 65 -42 105 -68 l73 -47 217 131 c119 71 220 127
224 125 4 -3 8 -189 8 -413 l0 -408 68 -46 c37 -26 93 -64 125 -86 l57 -40 58
40 c99 68 156 109 175 123 16 12 17 44 17 419 0 223 4 408 8 411 4 2 105 -54
224 -125 l217 -130 103 54 103 55 3 164 2 165 -52 28 c-29 16 -132 74 -228
130 -96 56 -221 128 -277 160 l-103 59 0 268 c0 187 3 268 11 268 9 0 90 -43
314 -170 22 -12 74 -42 116 -66 42 -24 78 -44 80 -44 2 0 3 117 2 260 -2 210
0 260 11 260 7 0 33 -11 57 -23 83 -45 184 -99 322 -174 l137 -75 0 -393 0
-393 95 -66 c52 -36 100 -66 106 -66 7 0 52 30 100 66 l89 66 0 253 c0 140 3
256 8 258 4 2 61 -26 127 -63 371 -207 571 -314 585 -313 8 1 86 32 173 68
l157 67 0 156 -1 157 -92 56 c-51 31 -164 100 -252 154 -88 54 -186 114 -217
134 -31 20 -71 44 -87 53 -17 9 -31 21 -31 25 1 4 73 49 162 98 88 50 182 102
209 118 l49 27 0 139 0 138 -120 78 -120 77 -308 -168 c-169 -93 -327 -179
-351 -191 l-44 -23 -236 121 c-130 67 -240 125 -244 129 -5 4 67 51 160 105
282 163 303 176 303 180 0 3 -92 63 -347 225 -48 30 -88 60 -90 65 -2 8 358
251 434 293 21 12 29 10 66 -11 130 -74 254 -147 441 -256 114 -67 213 -121
220 -119 6 2 62 29 124 61 l112 57 0 149 0 150 -53 28 c-30 15 -131 71 -225
123 -132 73 -168 98 -159 107 7 6 165 99 352 206 l340 194 3 150 3 151 -135
81 c-75 45 -142 81 -150 81 -9 0 -65 -27 -125 -60 -61 -33 -112 -60 -114 -60
-3 0 -40 -20 -83 -43 -164 -90 -425 -227 -434 -227 -6 0 -10 103 -10 269 l0
269 -100 57 -100 56 -95 -56 -95 -57 0 -426 0 -427 -249 -127 c-137 -71 -256
-128 -265 -128 -15 0 -17 27 -16 281 1 154 0 282 -2 284 -2 2 -35 -14 -73 -37
-39 -22 -88 -50 -110 -63 -249 -140 -315 -175 -324 -175 -8 0 -11 81 -11 268
l0 267 395 198 395 197 0 140 c0 78 -4 140 -9 140 -5 0 -68 32 -139 71 l-130
70 -214 -112 c-270 -142 -281 -148 -290 -142 -5 2 -8 187 -8 410 0 375 -1 407
-17 419 -35 27 -234 164 -237 163 0 -1 -24 -17 -52 -38z m334 -2764 c18 -34
66 -125 107 -202 l74 -141 -60 -109 c-34 -61 -78 -145 -100 -187 l-39 -78
-233 0 -233 0 -62 95 c-34 53 -62 97 -62 99 0 1 -25 41 -55 87 -30 46 -55 90
-55 98 0 7 15 39 34 70 18 31 68 118 110 194 l77 137 232 0 232 0 33 -63z"/>
</g>
</svg>
